<svg width="1163" height="252" viewBox="0 0 1163 252" fill="none" xmlns="http://www.w3.org/2000/svg">
<mask id="mask0_0_1" style="mask-type:luminance" maskUnits="userSpaceOnUse" x="0" y="0" width="302" height="252">
<path d="M302 0H0V251.286H302V0Z" fill="white"/>
</mask>
<g mask="url(#mask0_0_1)">
<path d="M68.101 43.7528V186.429C68.0078 195.399 64.379 203.969 58.0035 210.279C51.628 216.589 43.0203 220.128 34.0505 220.128C25.0806 220.128 16.473 216.589 10.0974 210.279C3.72182 203.969 0.0932834 195.399 0 186.429V43.7528C0.00585895 34.7229 3.59811 26.065 9.9867 19.6833C16.3753 13.3016 25.0371 9.71873 34.0671 9.72263C39.7141 9.70764 45.2739 11.1134 50.2351 13.8107C50.3125 13.8439 50.3456 13.8844 50.3824 13.8844C50.4016 13.9054 50.4277 13.9185 50.4561 13.9212C53.2798 15.4618 55.8612 17.4101 58.1166 19.7034C61.2824 22.8572 63.7938 26.6052 65.5075 30.7323C67.2208 34.8594 68.1021 39.2843 68.101 43.7528Z" fill="url(#paint0_linear_0_1)"/>
<path d="M145.917 74.5793V217.219C145.917 221.69 145.037 226.118 143.325 230.249C141.614 234.38 139.106 238.133 135.945 241.295C132.783 244.457 129.029 246.965 124.898 248.676C120.767 250.387 116.34 251.268 111.869 251.268C107.397 251.268 102.969 250.387 98.8387 248.676C94.7076 246.965 90.9543 244.457 87.7925 241.295C84.6307 238.133 82.1226 234.38 80.4116 230.249C78.7005 226.118 77.8199 221.69 77.8199 217.219V74.5793C77.8188 70.1052 78.6994 65.6747 80.4112 61.5413C82.1226 57.4076 84.6322 53.6518 87.7958 50.4881C90.9595 47.3245 94.7153 44.815 98.8487 43.1035C102.982 41.3917 107.413 40.5111 111.887 40.5122C113.102 40.5122 114.281 40.5859 115.423 40.6927H115.5C123.854 41.6009 131.578 45.5615 137.191 51.8144C142.805 58.0672 145.912 66.1763 145.917 74.5793Z" fill="url(#paint1_linear_0_1)"/>
<path d="M224.179 34.0298V176.706C224.179 185.737 220.592 194.397 214.207 200.782C207.821 207.168 199.161 210.755 190.131 210.755C181.101 210.755 172.44 207.168 166.055 200.782C159.669 194.397 156.082 185.737 156.082 176.706V34.0298C156.082 29.5578 156.963 25.1296 158.676 20.9985C160.389 16.8674 162.898 13.1143 166.062 9.95377C169.226 6.7933 172.982 4.28744 177.115 2.57941C181.248 0.8714 185.677 -0.00524941 190.149 -0.000409559C191.554 -0.0148852 192.958 0.0836433 194.348 0.294224H194.421C201.91 1.20025 208.876 4.59894 214.199 9.94349C217.365 13.1046 219.876 16.8592 221.588 20.9924C223.301 25.1255 224.182 29.5559 224.179 34.0298Z" fill="url(#paint2_linear_0_1)"/>
<path d="M301.999 72.9547V215.598C301.999 220.07 301.118 224.497 299.407 228.628C297.696 232.759 295.188 236.512 292.027 239.674C288.865 242.836 285.111 245.344 280.98 247.055C276.849 248.766 272.422 249.647 267.951 249.647C263.479 249.647 259.052 248.766 254.921 247.055C250.79 245.344 247.036 242.836 243.875 239.674C240.713 236.512 238.205 232.759 236.494 228.628C234.783 224.497 233.902 220.07 233.902 215.598V72.9547C233.901 68.4807 234.782 64.0509 236.494 59.9172C238.206 55.7838 240.715 52.028 243.879 48.8647C247.042 45.7011 250.798 43.1919 254.931 41.4801C259.065 39.7682 263.495 38.8873 267.969 38.8877C272.475 38.8692 276.937 39.773 281.08 41.543H281.117C281.136 41.564 281.162 41.5773 281.191 41.5799C285.245 43.274 288.925 45.7523 292.019 48.8721C295.194 52.0254 297.711 55.7783 299.425 59.9124C301.138 64.0465 302.013 68.4796 301.999 72.9547Z" fill="url(#paint3_linear_0_1)"/>
<g style="mix-blend-mode:multiply" opacity="0.3">
<path d="M68.101 84.8171V186.429C68.0078 195.398 64.379 203.969 58.0035 210.278C51.628 216.588 43.0203 220.127 34.0505 220.127C25.0806 220.127 16.473 216.588 10.0974 210.278C3.72182 203.969 0.0932834 195.398 0 186.429V180.573C0 180.573 0.0736637 181.417 0.220981 182.963C0.294639 184.547 0.515613 186.871 0.887589 189.703C1.51504 193.079 2.60436 196.352 4.12488 199.43C6.81327 204.898 10.9993 209.49 16.1957 212.672C21.3921 215.853 27.3853 217.494 33.4778 217.402C36.2408 217.374 38.9886 216.99 41.6539 216.261C47.2844 214.676 52.3609 211.551 56.312 207.238C60.358 202.849 63.0222 197.367 63.9724 191.475C64.0461 190.738 64.2302 190.149 64.2671 189.302L64.4181 186.797C64.488 185.508 64.4512 183.556 64.4881 181.973C64.4881 178.658 64.5249 175.307 64.5617 172.029C64.5617 165.436 64.7827 158.954 64.86 152.657C65.1141 140.098 65.5193 128.382 65.9981 118.332C66.8856 98.2229 68.101 84.8171 68.101 84.8171Z" fill="black"/>
</g>
<g style="mix-blend-mode:overlay" opacity="0.6">
<path d="M50.3861 13.8846C49.1056 13.4672 47.8022 13.1229 46.4822 12.8534C43.0796 12.0647 39.5856 11.7426 36.0964 11.8959C34.9991 11.9368 33.9055 12.0475 32.8222 12.2273C31.6812 12.3676 30.5497 12.5766 29.434 12.8534C21.8364 14.5718 15.0605 18.8498 10.2422 24.9702C8.56255 27.0284 7.15173 29.2919 6.04368 31.7063C4.98584 34.0439 4.18325 36.4888 3.64978 38.9985C3.37885 40.2754 3.18087 41.5663 3.05682 42.8656L2.94634 43.86C2.94634 43.8968 2.90951 44.4492 2.87268 44.7071C2.83585 45.37 2.79903 46.0329 2.72905 46.659C2.57805 49.2371 2.32024 51.6678 2.09927 53.9144C1.65053 58.9305 0.949893 63.9212 0 68.8671V43.7495C0.00680008 37.8421 1.54954 32.0383 4.47678 26.9073C7.40401 21.7764 11.6151 17.4948 16.6968 14.4827C21.7785 11.4707 27.556 9.83187 33.4623 9.72702C39.3686 9.62216 45.2006 11.0549 50.3861 13.8846Z" fill="white"/>
</g>
<g style="mix-blend-mode:multiply" opacity="0.3">
<path d="M145.917 115.493V217.219C145.917 221.69 145.037 226.117 143.325 230.248C141.614 234.38 139.106 238.133 135.945 241.295C132.783 244.456 129.029 246.964 124.898 248.676C120.767 250.387 116.34 251.267 111.869 251.267C107.397 251.267 102.969 250.387 98.8387 248.676C94.7076 246.964 90.9543 244.456 87.7925 241.295C84.6307 238.133 82.1226 234.38 80.4116 230.248C78.7005 226.117 77.8199 221.69 77.8199 217.219V213.094C77.8199 213.094 77.8935 213.941 78.0409 215.484C78.1712 217.715 78.4791 219.931 78.9616 222.113C80.6248 229.697 84.8524 236.475 90.9311 241.305C94.87 244.407 99.4692 246.561 104.374 247.603C105.627 247.856 106.894 248.041 108.167 248.155C109.565 248.251 110.966 248.276 112.366 248.229C115.14 248.077 117.886 247.593 120.546 246.789C126.054 244.982 130.967 241.71 134.758 237.324C138.646 232.863 141.131 227.354 141.903 221.487C142.12 219.974 142.243 218.449 142.271 216.92L142.308 211.945C142.308 208.63 142.345 205.315 142.385 202.041C142.385 195.523 142.603 189.077 142.68 182.816C142.934 170.364 143.339 158.73 143.818 148.749C144.702 128.792 145.917 115.493 145.917 115.493Z" fill="black"/>
</g>
<g style="mix-blend-mode:overlay" opacity="0.6">
<path d="M115.423 40.6927C115.091 40.77 113.802 40.9541 111.776 41.2488C110.635 41.5434 109.239 41.7644 107.725 42.2063C106.036 42.6995 104.376 43.2884 102.753 43.9705C100.892 44.7936 99.0943 45.7552 97.3762 46.8468C95.5208 48.0758 93.7603 49.4422 92.1096 50.9349C90.4243 52.569 88.8952 54.3567 87.5428 56.2751C86.151 58.2212 84.9659 60.3072 84.0072 62.4993C83.0732 64.6943 82.3587 66.9766 81.8748 69.3127C81.6277 70.4805 81.442 71.6609 81.3187 72.8483L81.1345 74.6124L81.0609 76.5312C80.8031 81.5768 80.3979 86.2873 79.9192 90.3422C79.4706 94.8832 78.7697 99.3956 77.8199 103.859V74.5793C77.8188 70.1052 78.6994 65.6747 80.4112 61.5413C82.1226 57.4076 84.6322 53.6518 87.7958 50.4881C90.9595 47.3245 94.7153 44.815 98.8487 43.1035C102.982 41.3917 107.413 40.5111 111.887 40.5122C113.102 40.5122 114.281 40.5859 115.423 40.6927Z" fill="white"/>
</g>
<g style="mix-blend-mode:multiply" opacity="0.3">
<path d="M224.179 48.6146V176.706C224.179 185.737 220.592 194.397 214.207 200.783C207.821 207.168 199.161 210.755 190.131 210.755C181.101 210.755 172.44 207.168 166.055 200.783C159.669 194.397 156.082 185.737 156.082 176.706V173.834C156.082 173.834 156.156 174.755 156.303 176.486C156.503 178.964 156.934 181.417 157.592 183.815C158.652 187.468 160.32 190.915 162.527 194.013C165.297 197.968 168.906 201.263 173.097 203.662C177.962 206.487 183.492 207.962 189.118 207.938C192.1 207.972 195.07 207.549 197.924 206.685C200.928 205.852 203.785 204.56 206.395 202.856C211.825 199.289 216.018 194.131 218.401 188.087L219.248 185.804L219.837 183.406C220.058 182.599 220.095 181.826 220.242 181.053C220.4 180.215 220.474 179.364 220.463 178.511C220.647 175.196 220.463 171.182 220.5 167.573C220.537 160.134 220.574 152.694 220.647 145.365C220.647 138.036 220.868 130.854 220.942 123.894C221.2 109.935 221.605 96.9343 222.084 85.775C222.964 63.4565 224.179 48.6146 224.179 48.6146Z" fill="black"/>
</g>
<g style="mix-blend-mode:overlay" opacity="0.6">
<path d="M194.348 0.294224C193.869 0.367883 192.654 0.552028 190.849 0.773004C189.744 0.846662 188.308 1.32176 186.761 1.57956C185.064 2.04795 183.392 2.60234 181.752 3.24056C179.869 4.02522 178.047 4.94849 176.301 6.00276C174.396 7.16749 172.598 8.49854 170.928 9.98032C170.04 10.7169 169.267 11.6008 168.46 12.4111C167.724 13.3686 166.873 14.212 166.21 15.2101C164.771 17.1308 163.548 19.2046 162.564 21.3937C161.547 23.5631 160.769 25.8365 160.244 28.174C160.096 29.3525 159.728 30.2364 159.618 31.6359L159.434 33.5474L159.397 34.0298V34.0667L159.36 34.0998V34.3613L159.323 35.3189C159.065 40.4013 158.66 45.1155 158.181 49.1667C157.734 53.7199 157.033 58.2447 156.082 62.7199V34.0298C156.082 29.5578 156.963 25.1296 158.676 20.9985C160.389 16.8674 162.898 13.1143 166.062 9.95377C169.226 6.7933 172.982 4.28744 177.115 2.57941C181.248 0.8714 185.677 -0.00524941 190.149 -0.000409559C191.554 -0.0148852 192.958 0.0836433 194.348 0.294224Z" fill="white"/>
</g>
<g style="mix-blend-mode:overlay" opacity="0.6">
<path d="M281.08 41.543C280.749 41.4657 279.423 41.2079 277.324 40.9538C276.108 40.8065 274.635 40.7291 272.978 40.6923C271.131 40.6853 269.286 40.7972 267.453 41.0274C265.339 41.3423 263.247 41.7964 261.192 42.3864C258.978 43.1006 256.833 44.0139 254.784 45.1155C250.405 47.512 246.598 50.8292 243.625 54.8384C242.104 56.8452 240.819 59.02 239.795 61.3204C238.808 63.5445 238.055 65.8647 237.548 68.2443C237.273 69.4442 237.088 70.6628 236.996 71.8904L236.885 72.8111L236.848 72.9952L236.811 73.1389L236.775 73.6213C236.738 74.2474 236.701 74.8367 236.664 75.4628C236.48 77.8935 236.259 80.2138 236.001 82.313C235.554 87.0736 234.853 91.8065 233.902 96.4923V72.9547C233.901 68.4807 234.782 64.0509 236.494 59.9172C238.206 55.7838 240.715 52.028 243.879 48.8647C247.042 45.7011 250.798 43.1919 254.931 41.4801C259.065 39.7682 263.495 38.8873 267.969 38.8877C272.475 38.8692 276.937 39.773 281.08 41.543Z" fill="white"/>
</g>
<g style="mix-blend-mode:multiply" opacity="0.3">
<path d="M301.999 124.115V215.599C301.999 220.07 301.118 224.497 299.407 228.628C297.696 232.759 295.188 236.513 292.027 239.675C288.865 242.836 285.111 245.344 280.98 247.055C276.849 248.766 272.422 249.647 267.951 249.647C263.479 249.647 259.052 248.766 254.921 247.055C250.79 245.344 247.036 242.836 243.875 239.675C240.713 236.513 238.205 232.759 236.494 228.628C234.783 224.497 233.902 220.07 233.902 215.599C233.902 215.599 234.012 216.372 234.233 217.845C234.326 218.718 234.499 219.581 234.749 220.423C234.977 221.588 235.297 222.733 235.707 223.848C237.575 229.499 240.919 234.547 245.393 238.471C249.868 242.395 255.31 245.052 261.156 246.167C262.371 246.388 263.513 246.461 264.728 246.609L266.79 246.646H268.153L268.632 246.572C271.229 246.437 273.801 245.992 276.292 245.246C281.443 243.651 286.098 240.758 289.809 236.845C291.7 234.836 293.333 232.597 294.67 230.183C295.939 227.735 296.893 225.137 297.506 222.449C297.835 221.141 298.068 219.812 298.206 218.471L298.353 216.188V215.599L298.39 215.19V214.051C298.39 210.958 298.427 207.861 298.464 204.808C298.464 198.731 298.685 192.691 298.758 186.909C299.016 175.27 299.421 164.406 299.9 155.125C300.784 136.486 301.999 124.115 301.999 124.115Z" fill="black"/>
</g>
</g>
<path d="M344.846 72.3594H358.542L393.479 159.298L428.342 72.3594H442.111L398.752 179H388.059L344.846 72.3594ZM340.378 72.3594H352.463L354.44 137.398V179H340.378V72.3594ZM434.421 72.3594H446.506V179H432.443V137.398L434.421 72.3594ZM516.013 165.45V124.654C516.013 121.529 515.378 118.819 514.108 116.524C512.888 114.181 511.032 112.374 508.542 111.104C506.052 109.835 502.976 109.2 499.313 109.2C495.896 109.2 492.893 109.786 490.305 110.958C487.766 112.13 485.764 113.668 484.299 115.572C482.883 117.477 482.175 119.527 482.175 121.725H468.625C468.625 118.893 469.357 116.085 470.822 113.302C472.287 110.519 474.387 108.004 477.121 105.758C479.904 103.463 483.225 101.656 487.082 100.338C490.988 98.9707 495.334 98.2871 500.119 98.2871C505.881 98.2871 510.959 99.2637 515.354 101.217C519.797 103.17 523.264 106.124 525.754 110.079C528.293 113.985 529.562 118.893 529.562 124.801V161.715C529.562 164.352 529.782 167.159 530.222 170.138C530.71 173.116 531.418 175.68 532.346 177.828V179H518.21C517.526 177.438 516.989 175.362 516.599 172.774C516.208 170.138 516.013 167.696 516.013 165.45ZM518.356 130.953L518.503 140.475H504.807C500.949 140.475 497.507 140.792 494.479 141.427C491.452 142.013 488.913 142.916 486.862 144.137C484.812 145.357 483.249 146.896 482.175 148.751C481.101 150.558 480.563 152.682 480.563 155.123C480.563 157.613 481.125 159.884 482.248 161.935C483.371 163.985 485.056 165.621 487.302 166.842C489.597 168.014 492.404 168.6 495.725 168.6C499.875 168.6 503.537 167.721 506.711 165.963C509.885 164.205 512.399 162.057 514.255 159.518C516.159 156.979 517.185 154.513 517.331 152.12L523.117 158.639C522.775 160.689 521.848 162.96 520.334 165.45C518.82 167.94 516.794 170.333 514.255 172.628C511.765 174.874 508.786 176.754 505.319 178.268C501.901 179.732 498.044 180.465 493.747 180.465C488.376 180.465 483.664 179.415 479.611 177.315C475.607 175.216 472.482 172.408 470.236 168.893C468.039 165.328 466.94 161.349 466.94 156.954C466.94 152.706 467.771 148.971 469.431 145.748C471.091 142.477 473.483 139.767 476.608 137.618C479.733 135.421 483.493 133.761 487.888 132.638C492.282 131.515 497.189 130.953 502.609 130.953H518.356ZM584.055 99.752V110.152H541.208V99.752H584.055ZM555.71 80.4893H569.26V159.371C569.26 162.057 569.675 164.083 570.505 165.45C571.335 166.817 572.409 167.721 573.728 168.16C575.046 168.6 576.462 168.819 577.976 168.819C579.099 168.819 580.271 168.722 581.491 168.526C582.761 168.282 583.713 168.087 584.348 167.94L584.421 179C583.347 179.342 581.931 179.659 580.173 179.952C578.464 180.294 576.389 180.465 573.947 180.465C570.627 180.465 567.575 179.806 564.792 178.487C562.009 177.169 559.787 174.972 558.127 171.896C556.516 168.771 555.71 164.571 555.71 159.298V80.4893ZM631.662 169.332C634.885 169.332 637.863 168.673 640.598 167.354C643.332 166.036 645.578 164.229 647.336 161.935C649.094 159.591 650.095 156.93 650.339 153.951H663.229C662.985 158.639 661.398 163.009 658.469 167.062C655.588 171.065 651.804 174.312 647.116 176.803C642.429 179.244 637.277 180.465 631.662 180.465C625.705 180.465 620.505 179.415 616.062 177.315C611.667 175.216 608.005 172.335 605.075 168.673C602.194 165.011 600.021 160.812 598.557 156.075C597.141 151.29 596.433 146.236 596.433 140.914V137.838C596.433 132.516 597.141 127.486 598.557 122.75C600.021 117.965 602.194 113.741 605.075 110.079C608.005 106.417 611.667 103.536 616.062 101.437C620.505 99.3369 625.705 98.2871 631.662 98.2871C637.863 98.2871 643.283 99.5566 647.922 102.096C652.561 104.586 656.198 108.004 658.835 112.35C661.521 116.646 662.985 121.529 663.229 126.998H650.339C650.095 123.727 649.167 120.772 647.556 118.136C645.993 115.499 643.845 113.399 641.11 111.837C638.425 110.226 635.275 109.42 631.662 109.42C627.512 109.42 624.021 110.25 621.188 111.91C618.405 113.521 616.184 115.719 614.523 118.502C612.912 121.236 611.74 124.288 611.008 127.657C610.324 130.978 609.982 134.371 609.982 137.838V140.914C609.982 144.381 610.324 147.799 611.008 151.168C611.691 154.537 612.839 157.589 614.45 160.323C616.11 163.058 618.332 165.255 621.115 166.915C623.947 168.526 627.463 169.332 631.662 169.332ZM692.014 66.5V179H678.464V66.5H692.014ZM688.791 136.373L683.151 136.153C683.2 130.733 684.006 125.729 685.568 121.139C687.131 116.5 689.328 112.472 692.16 109.054C694.992 105.636 698.361 102.999 702.268 101.144C706.223 99.2393 710.593 98.2871 715.378 98.2871C719.284 98.2871 722.8 98.8242 725.925 99.8984C729.05 100.924 731.711 102.584 733.908 104.879C736.154 107.174 737.863 110.152 739.035 113.814C740.207 117.428 740.793 121.847 740.793 127.071V179H727.17V126.925C727.17 122.774 726.56 119.454 725.339 116.964C724.118 114.425 722.336 112.594 719.992 111.471C717.648 110.299 714.768 109.713 711.35 109.713C707.98 109.713 704.904 110.421 702.121 111.837C699.387 113.253 697.019 115.206 695.017 117.696C693.063 120.187 691.525 123.043 690.402 126.266C689.328 129.439 688.791 132.809 688.791 136.373ZM841.94 125.899V164.938C840.622 166.891 838.522 169.088 835.642 171.529C832.761 173.922 828.781 176.021 823.703 177.828C818.674 179.586 812.18 180.465 804.221 180.465C797.727 180.465 791.745 179.342 786.276 177.096C780.856 174.801 776.145 171.48 772.141 167.135C768.186 162.74 765.109 157.418 762.912 151.168C760.764 144.869 759.689 137.74 759.689 129.781V121.505C759.689 113.546 760.617 106.441 762.473 100.191C764.377 93.9414 767.16 88.6436 770.822 84.2979C774.484 79.9033 778.977 76.583 784.299 74.3369C789.621 72.042 795.725 70.8945 802.609 70.8945C810.764 70.8945 817.575 72.3105 823.044 75.1426C828.562 77.9258 832.858 81.7832 835.935 86.7148C839.06 91.6465 841.062 97.2617 841.94 103.561H827.805C827.17 99.7031 825.9 96.1875 823.996 93.0137C822.141 89.8398 819.479 87.3008 816.013 85.3965C812.546 83.4434 808.078 82.4668 802.609 82.4668C797.678 82.4668 793.405 83.3701 789.792 85.1768C786.179 86.9834 783.2 89.5713 780.856 92.9404C778.513 96.3096 776.755 100.387 775.583 105.172C774.46 109.957 773.898 115.353 773.898 121.358V129.781C773.898 135.934 774.606 141.427 776.022 146.261C777.487 151.095 779.562 155.221 782.248 158.639C784.934 162.008 788.132 164.571 791.843 166.329C795.603 168.087 799.753 168.966 804.294 168.966C809.323 168.966 813.4 168.551 816.525 167.721C819.65 166.842 822.092 165.816 823.85 164.645C825.607 163.424 826.95 162.276 827.878 161.202V137.325H803.195V125.899H841.94ZM911.813 160.689V99.752H925.437V179H912.473L911.813 160.689ZM914.377 143.99L920.017 143.844C920.017 149.117 919.455 154 918.332 158.492C917.258 162.936 915.5 166.793 913.059 170.064C910.617 173.336 907.419 175.899 903.464 177.755C899.509 179.562 894.699 180.465 889.035 180.465C885.178 180.465 881.638 179.903 878.415 178.78C875.241 177.657 872.507 175.924 870.212 173.58C867.917 171.236 866.135 168.185 864.865 164.425C863.645 160.665 863.034 156.148 863.034 150.875V99.752H876.584V151.021C876.584 154.586 876.975 157.54 877.756 159.884C878.586 162.179 879.685 164.01 881.052 165.377C882.468 166.695 884.03 167.623 885.739 168.16C887.497 168.697 889.304 168.966 891.159 168.966C896.921 168.966 901.486 167.867 904.855 165.67C908.225 163.424 910.642 160.421 912.106 156.661C913.62 152.853 914.377 148.629 914.377 143.99ZM978.977 180.465C973.459 180.465 968.454 179.537 963.962 177.682C959.519 175.777 955.686 173.116 952.463 169.698C949.289 166.28 946.848 162.228 945.139 157.54C943.43 152.853 942.575 147.726 942.575 142.159V139.083C942.575 132.638 943.527 126.9 945.432 121.871C947.336 116.793 949.924 112.496 953.195 108.98C956.467 105.465 960.178 102.804 964.328 100.997C968.479 99.1904 972.775 98.2871 977.219 98.2871C982.883 98.2871 987.766 99.2637 991.867 101.217C996.018 103.17 999.411 105.904 1002.05 109.42C1004.68 112.887 1006.64 116.988 1007.91 121.725C1009.18 126.412 1009.81 131.539 1009.81 137.105V143.185H950.632V132.125H996.262V131.1C996.066 127.584 995.334 124.166 994.064 120.846C992.844 117.525 990.891 114.791 988.205 112.643C985.52 110.494 981.857 109.42 977.219 109.42C974.143 109.42 971.311 110.079 968.723 111.397C966.135 112.667 963.913 114.571 962.058 117.11C960.202 119.649 958.762 122.75 957.736 126.412C956.711 130.074 956.198 134.298 956.198 139.083V142.159C956.198 145.919 956.711 149.459 957.736 152.779C958.811 156.051 960.349 158.932 962.351 161.422C964.401 163.912 966.867 165.865 969.748 167.281C972.678 168.697 975.998 169.405 979.709 169.405C984.494 169.405 988.547 168.429 991.867 166.476C995.188 164.522 998.093 161.91 1000.58 158.639L1008.79 165.157C1007.08 167.745 1004.9 170.211 1002.27 172.555C999.631 174.898 996.384 176.803 992.526 178.268C988.718 179.732 984.201 180.465 978.977 180.465ZM1071.77 157.979C1071.77 156.026 1071.33 154.22 1070.46 152.56C1069.63 150.851 1067.89 149.312 1065.26 147.945C1062.67 146.529 1058.76 145.309 1053.54 144.283C1049.14 143.355 1045.16 142.257 1041.6 140.987C1038.08 139.718 1035.08 138.18 1032.59 136.373C1030.15 134.566 1028.27 132.442 1026.95 130.001C1025.63 127.56 1024.97 124.703 1024.97 121.432C1024.97 118.307 1025.66 115.353 1027.02 112.569C1028.44 109.786 1030.42 107.32 1032.96 105.172C1035.54 103.023 1038.64 101.339 1042.26 100.118C1045.87 98.8975 1049.9 98.2871 1054.34 98.2871C1060.69 98.2871 1066.11 99.4102 1070.6 101.656C1075.09 103.902 1078.54 106.905 1080.93 110.665C1083.32 114.376 1084.52 118.502 1084.52 123.043H1070.97C1070.97 120.846 1070.31 118.722 1068.99 116.671C1067.72 114.571 1065.84 112.838 1063.35 111.471C1060.91 110.104 1057.91 109.42 1054.34 109.42C1050.58 109.42 1047.53 110.006 1045.19 111.178C1042.89 112.301 1041.21 113.741 1040.13 115.499C1039.11 117.257 1038.6 119.112 1038.6 121.065C1038.6 122.53 1038.84 123.849 1039.33 125.021C1039.87 126.144 1040.79 127.193 1042.11 128.17C1043.43 129.098 1045.29 129.977 1047.68 130.807C1050.07 131.637 1053.12 132.467 1056.83 133.297C1063.33 134.762 1068.67 136.52 1072.87 138.57C1077.07 140.621 1080.2 143.136 1082.25 146.114C1084.3 149.093 1085.32 152.706 1085.32 156.954C1085.32 160.421 1084.59 163.595 1083.13 166.476C1081.71 169.356 1079.64 171.847 1076.9 173.946C1074.22 175.997 1070.99 177.608 1067.23 178.78C1063.52 179.903 1059.35 180.465 1054.71 180.465C1047.73 180.465 1041.82 179.22 1036.98 176.729C1032.15 174.239 1028.49 171.017 1026 167.062C1023.51 163.106 1022.26 158.932 1022.26 154.537H1035.89C1036.08 158.248 1037.16 161.202 1039.11 163.399C1041.06 165.548 1043.45 167.086 1046.29 168.014C1049.12 168.893 1051.93 169.332 1054.71 169.332C1058.42 169.332 1061.52 168.844 1064.01 167.867C1066.55 166.891 1068.48 165.548 1069.8 163.839C1071.12 162.13 1071.77 160.177 1071.77 157.979ZM1149.26 157.979C1149.26 156.026 1148.83 154.22 1147.95 152.56C1147.12 150.851 1145.38 149.312 1142.75 147.945C1140.16 146.529 1136.25 145.309 1131.03 144.283C1126.63 143.355 1122.65 142.257 1119.09 140.987C1115.57 139.718 1112.57 138.18 1110.08 136.373C1107.64 134.566 1105.76 132.442 1104.44 130.001C1103.12 127.56 1102.46 124.703 1102.46 121.432C1102.46 118.307 1103.15 115.353 1104.51 112.569C1105.93 109.786 1107.91 107.32 1110.45 105.172C1113.03 103.023 1116.13 101.339 1119.75 100.118C1123.36 98.8975 1127.39 98.2871 1131.83 98.2871C1138.18 98.2871 1143.6 99.4102 1148.09 101.656C1152.58 103.902 1156.03 106.905 1158.42 110.665C1160.81 114.376 1162.01 118.502 1162.01 123.043H1148.46C1148.46 120.846 1147.8 118.722 1146.48 116.671C1145.21 114.571 1143.33 112.838 1140.84 111.471C1138.4 110.104 1135.4 109.42 1131.83 109.42C1128.07 109.42 1125.02 110.006 1122.68 111.178C1120.38 112.301 1118.7 113.741 1117.62 115.499C1116.6 117.257 1116.09 119.112 1116.09 121.065C1116.09 122.53 1116.33 123.849 1116.82 125.021C1117.36 126.144 1118.28 127.193 1119.6 128.17C1120.92 129.098 1122.78 129.977 1125.17 130.807C1127.56 131.637 1130.61 132.467 1134.32 133.297C1140.82 134.762 1146.16 136.52 1150.36 138.57C1154.56 140.621 1157.69 143.136 1159.74 146.114C1161.79 149.093 1162.81 152.706 1162.81 156.954C1162.81 160.421 1162.08 163.595 1160.62 166.476C1159.2 169.356 1157.13 171.847 1154.39 173.946C1151.71 175.997 1148.48 177.608 1144.72 178.78C1141.01 179.903 1136.84 180.465 1132.2 180.465C1125.22 180.465 1119.31 179.22 1114.47 176.729C1109.64 174.239 1105.98 171.017 1103.49 167.062C1101 163.106 1099.75 158.932 1099.75 154.537H1113.38C1113.57 158.248 1114.65 161.202 1116.6 163.399C1118.55 165.548 1120.94 167.086 1123.78 168.014C1126.61 168.893 1129.42 169.332 1132.2 169.332C1135.91 169.332 1139.01 168.844 1141.5 167.867C1144.04 166.891 1145.97 165.548 1147.29 163.839C1148.61 162.13 1149.26 160.177 1149.26 157.979Z" fill="#F9A826"/>
<defs>
<linearGradient id="paint0_linear_0_1" x1="34.0505" y1="5.72481" x2="34.0505" y2="198.035" gradientUnits="userSpaceOnUse">
<stop stop-color="#F9A826"/>
<stop offset="1" stop-color="#FA8900"/>
</linearGradient>
<linearGradient id="paint1_linear_0_1" x1="111.869" y1="43.6736" x2="111.869" y2="257.169" gradientUnits="userSpaceOnUse">
<stop stop-color="#F58033"/>
<stop offset="1" stop-color="#A53826"/>
</linearGradient>
<linearGradient id="paint2_linear_0_1" x1="190.131" y1="5.68865" x2="190.131" y2="198.32" gradientUnits="userSpaceOnUse">
<stop stop-color="#F9A826"/>
<stop offset="1" stop-color="#FF7A00"/>
</linearGradient>
<linearGradient id="paint3_linear_0_1" x1="267.951" y1="43.7348" x2="267.951" y2="257.234" gradientUnits="userSpaceOnUse">
<stop stop-color="#F58033"/>
<stop offset="1" stop-color="#A53826"/>
</linearGradient>
</defs>
</svg>
